<svg xmlns="http://www.w3.org/2000/svg" xmlns:xlink="http://www.w3.org/1999/xlink" width="23" height="23" viewBox="0 0 23 23"><defs><path id="no3ga" d="M850.69 414.634a5.955 5.955 0 1 1 0-11.91 5.955 5.955 0 0 1 0 11.91zm7.937-.004h-1.05l-.365-.362a8.557 8.557 0 0 0 2.074-5.59 8.598 8.598 0 0 0-8.598-8.598 8.598 8.598 0 0 0-8.598 8.598 8.598 8.598 0 0 0 8.598 8.598 8.559 8.559 0 0 0 5.589-2.071l.365.362v1.048l6.611 6.602 1.972-1.973-6.598-6.614z"/></defs><g><g transform="translate(-842 -400)"><use fill="#adaaae" xlink:href="#no3ga"/></g></g></svg>