<svg height="512pt" viewBox="-15 0 512 512" width="512pt" xmlns="http://www.w3.org/2000/svg"><path d="m451.644531 306.753906v-59.535156c0-45.457031-36.5625-82.796875-81.503906-83.230469-14.871094-.117187-29.148437 3.667969-41.695313 10.878907v-116.410157s0 0 0-.003906c-.003906-38.375-82.617187-58.453125-164.222656-58.453125-81.605468 0-164.21874975 20.078125-164.222656 58.453125v91.136719 252.363281c0 55.820313 174.578125 73.308594 271.292969 45.304687 17.339843 38.148438 55.804687 64.742188 100.367187 64.742188 60.75 0 110.175782-49.425781 110.175782-110.175781v-59.5c0-17.882813-13.09375-32.761719-30.191407-35.570313zm-393.476562 35.804688c-26.367188-8.285156-38.167969-18.386719-38.167969-24.726563v-54.601562c29.546875 19.171875 82.113281 26.300781 117.480469 28.214843.007812 0 .019531.003907.027343.003907 47.46875 2.566406 114.472657-1.5625 157.445313-20.945313 3.835937 4.019532 8.738281 6.679688 13.492187 7.898438v27.867187h-10.910156c-19.878906 0-36.050781 16.171875-36.050781 36.054688v2.761719c-57.777344 15.476562-146.941406 15.183593-203.316406-2.527344zm-31.960938-159.765625c4.863281 2.617187 10.929688.796875 13.546875-4.066407 2.617188-4.863281.796875-10.925781-4.066406-13.542968-9.824219-5.285156-15.6875-11.113282-15.6875-15.59375v-61.613282c59.714844 38.753907 229.507812 38.246094 288.445312 0v61.613282c0 6.335937-11.800781 16.4375-38.167968 24.722656-47.355469 14.882812-114.382813 16.75-165.054688 9.976562-5.46875-.726562-10.503906 3.109376-11.238281 8.585938-.730469 5.472656 3.113281 10.503906 8.585937 11.238281 59.644532 7.972657 159.925782 4.765625 205.875-25.003906v11.839844c-14.390624 15.785156-22.582031 36.847656-21.394531 61.167969-33.410156 15.28125-86 20.050781-122.828125 20.050781-40.203125 0-77.867187-4.875-106.050781-13.730469-26.367187-8.285156-38.167969-18.386719-38.167969-24.726562v-54.589844c1.777344 1.164062 4 2.488281 6.203125 3.671875zm302.238281 93.4375c17.996094-9.101563 15.554688-28.621094 15.726563-29.273438 0-13.914062 11.011719-25.492187 24.546875-25.8125 14.101562-.347656 25.769531 11.027344 25.769531 25.152344v59.972656h-66.042969zm103.199219-29.011719v59.050781h-17.15625v-59.972656c0-25.300781-20.847656-45.765625-46.242187-45.144531-24.304688.570312-44.078125 21.121094-44.078125 45.804687v3.765625c0 4.203125-3.042969 7.703125-7.039063 8.429688-.070312.011718-.144531.011718-.214844.023437-5.351562.820313-9.898437-3.324219-9.898437-8.453125.078125-20.054687 3.921875-34.246094 18.492187-48.675781 11.921876-11.808594 27.695313-18.265625 44.4375-18.058594 34.019532.328125 61.699219 28.695313 61.699219 63.230469zm-373.476562-213.484375c28.1875-8.855469 65.851562-13.734375 106.054687-13.734375 40.207032 0 77.871094 4.878906 106.054688 13.734375 26.367187 8.28125 38.167968 18.382813 38.167968 24.722656 0 6.339844-11.800781 16.441407-38.167968 24.722657-32.324219 10.160156-72.175782 13.734374-106.054688 13.734374-37.484375 0-91.359375-4.859374-124.90625-21.03125-13.21875-6.371093-19.316406-12.871093-19.316406-17.425781 0-6.335937 11.800781-16.441406 38.167969-24.722656zm206.53125 394.601563c-57.988281 16.402343-149.285157 16.332031-206.53125-1.65625-26.367188-8.285157-38.167969-18.386719-38.167969-24.726563v-54.601563c50.25 32.570313 171.707031 35.542969 241.484375 18.394532.015625 36.0625-.851563 46.152344 3.214844 62.589844zm197.136719-26.511719c0 49.722656-40.453126 90.175781-90.175782 90.175781-49.933594 0-90.175781-40.679688-90.175781-90.175781v-59.5c0-8.828125 7.175781-16.054688 16.054687-16.054688h148.242188c8.851562 0 16.054688 7.203125 16.054688 16.054688zm0 0"/><path d="m371.660156 346.320312c-32.652344 0-59.21875 26.566407-59.21875 59.21875 0 32.652344 26.566406 59.21875 59.21875 59.21875s59.214844-26.566406 59.214844-59.21875c0-32.652343-26.5625-59.21875-59.214844-59.21875zm0 98.4375c-21.625 0-39.21875-17.59375-39.21875-39.21875s17.59375-39.21875 39.21875-39.21875 39.214844 17.59375 39.214844 39.21875-17.59375 39.21875-39.214844 39.21875zm0 0"/><path d="m60.925781 195.851562c5.054688 2.101563 10.957031-.269531 13.0625-5.410156 2.390625-5.742187-1.027343-12.363281-7.28125-13.632812-4.644531-.933594-9.347656 1.554687-11.191406 5.980468-2.078125 5.066407.21875 10.898438 5.410156 13.0625zm0 0"/></svg>