<?xml version="1.0" encoding="iso-8859-1"?>
<!-- Generator: Adobe Illustrator 19.0.0, SVG Export Plug-In . SVG Version: 6.00 Build 0)  -->
<svg xmlns="http://www.w3.org/2000/svg" xmlns:xlink="http://www.w3.org/1999/xlink" version="1.1" id="Layer_1" x="0px" y="0px" viewBox="0 0 512 512" style="enable-background:new 0 0 512 512;" xml:space="preserve" width="512" height="512">
<g id="XMLID_1577_">
	<g id="XMLID_327_">
		<path id="XMLID_338_" d="M501.807,343.876c-13.083-14.205-34.212-16.702-50.244-5.944c-24.585,16.501-65.757,43.871-95.967,63.927    c-5.497,3.649-11.321,6.667-17.375,9.045c4.938-15.291-0.361-32.546-14.037-42.261l-80.573-57.234    c-36.383-25.847-85.368-25.977-121.889-0.325l-48.225,33.87l-10.581-10.581c-3.906-3.904-10.236-3.904-14.143,0L2.93,380.216    c-3.905,3.905-3.905,10.237,0,14.143c3.906,3.904,10.236,3.904,14.143,0l38.772-38.772l100.57,100.57l-38.772,38.772    c-3.905,3.905-3.905,10.237,0,14.143c1.953,1.952,4.512,2.929,7.071,2.929s5.118-0.977,7.071-2.929l44.415-44.415l92.066,32.724    c13.474,4.788,27.5,7.141,41.462,7.141c25.214,0,50.214-7.672,71.343-22.518l7.139-5.016c4.519-3.176,5.608-9.412,2.434-13.932    c-3.176-4.52-9.413-5.608-13.932-2.434l-7.139,5.016c-27.534,19.346-62.899,24.166-94.609,12.896L169.644,441.1l-81.79-81.79    l45.362-31.86c29.61-20.794,69.317-20.688,98.813,0.263l80.573,57.234c7.653,5.437,9.717,15.909,4.698,23.843    c-4.918,7.774-14.807,10.485-22.996,6.31c-28.418-14.486-73.77-37.544-73.77-37.544l-0.006,0.013    c-1.36-0.692-2.895-1.091-4.526-1.091c-5.523,0-10,4.477-10,10c0,3.89,2.225,7.252,5.468,8.906v0c0,0,45.341,23.052,73.752,37.534    c5.505,2.807,11.367,4.151,17.145,4.16c0.666,0.14,1.355,0.215,2.063,0.215c22.211,0,43.729-6.491,62.229-18.772    c30.229-20.067,71.431-47.458,96.051-63.982c7.779-5.223,18.037-4.008,24.387,2.887c3.673,3.988,5.377,9.152,4.798,14.543    s-3.341,10.076-7.777,13.192l-41.912,29.447c-4.519,3.175-5.608,9.412-2.434,13.932c3.176,4.519,9.411,5.61,13.932,2.434    l41.912-29.447c9.087-6.385,14.979-16.38,16.165-27.422C512.965,363.062,509.33,352.044,501.807,343.876z"/>
		<path id="XMLID_432_" d="M217.121,136.357c2.63,0,5.21-1.07,7.069-2.93c1.87-1.86,2.931-4.44,2.931-7.07s-1.061-5.21-2.931-7.07    c-1.859-1.859-4.43-2.93-7.069-2.93c-2.63,0-5.21,1.07-7.07,2.93c-1.86,1.86-2.93,4.44-2.93,7.07s1.069,5.21,2.93,7.07    C211.911,135.287,214.491,136.357,217.121,136.357z"/>
		<path id="XMLID_939_" d="M149.938,143.646h17.729l6.973,50.709c3.735,27.155,17.17,52.031,37.83,70.045    c20.661,18.013,47.135,27.934,74.546,27.934c17.813,0,35.123-4.139,50.839-12.039c0.933-0.345,45.264-16.441,87.377,2.84    c1.343,0.614,2.76,0.908,4.158,0.908c3.281,0,6.465-1.618,8.365-4.514c26.915-41.011,32.216-90.742,32.429-92.84    c0.341-3.361-1.04-6.668-3.67-8.79s-6.153-2.775-9.367-1.729l-40.221,13.058c4.529-9.531,6.935-20.056,6.842-30.713l-0.017-1.874    c4.742-9.302,7.003-19.796,6.381-30.424l-0.52-8.868c8.527-13.707,10.142-30.845,3.81-46.239l-2.447-5.951    c5.558-13.408,6.925-28.473,3.453-42.887l-3.521-14.614c-0.847-3.518-3.528-6.303-7.011-7.284    c-3.483-0.98-7.225-0.004-9.782,2.555l-28.957,28.956c-13.464,13.465-29.276,23.823-47,30.789    c-27.9,10.966-51.73,29.321-69.362,53.339l-1.488-5.587c-5.188-23.521-26.381-40.566-50.489-40.566    c-14.944,0-29.148,6.46-38.97,17.725c-6.314,7.241-10.399,16.009-11.981,25.28l-20.941,12.128    c-3.914,2.267-5.819,6.879-4.646,11.248C141.454,140.609,145.414,143.646,149.938,143.646z M425.347,261.551    c-18.903-7.016-37.482-8.536-53.11-7.786c8.81-10.02,15.82-21.557,20.683-34.231l0.651-1.695l54.129-17.574    C444.572,215.5,438.062,239.54,425.347,261.551z M192.923,100.728c6.022-6.907,14.731-10.868,23.896-10.868    c14.834,0,27.868,10.525,30.992,25.025c0.033,0.157,0.071,0.313,0.112,0.468l7.222,27.115c1.015,3.81,4.172,6.668,8.063,7.298    c3.89,0.632,7.789-1.084,9.956-4.378l7.616-11.587c15.71-23.895,38.08-42.054,64.693-52.514    c20.298-7.977,38.407-19.84,53.827-35.26l16.271-16.271c2.825,15.769-2.281,32.27-13.672,43.66l-12.808,12.808    c-3.905,3.905-3.905,10.237,0,14.143c3.906,3.904,10.236,3.904,14.143,0l12.808-12.808c0.327-0.327,0.65-0.657,0.97-0.99    c1.199,9.293-1.877,18.768-8.676,25.658l-6.047,6.047h-0.001c-3.905,3.905-3.905,10.236,0,14.142    c2.071,2.071,4.822,3.032,7.535,2.919c-0.669,4.603-2.149,9.047-4.36,13.121l-12.823,15.165    c-3.461,4.094-3.078,10.188,0.867,13.817c1.627,1.496,3.621,2.354,5.669,2.579c-2.46,5.361-5.857,10.299-10.07,14.512    c-2.379,2.379-5.008,4.517-7.823,6.374l-26.944,10.989c-5.016,2.046-7.49,7.713-5.583,12.782c1.909,5.07,7.509,7.696,12.625,5.93    l4.414-1.525c-16.947,26.443-46.69,43.255-78.78,43.255c-46.441,0-86.233-34.695-92.561-80.703l-9.042-65.749    C184.163,116.803,186.901,107.635,192.923,100.728z"/>
		<path id="XMLID_957_" d="M414.971,435.427c-2.63,0-5.21,1.069-7.08,2.93c-1.86,1.87-2.93,4.45-2.93,7.08s1.069,5.2,2.93,7.06    c1.87,1.87,4.44,2.94,7.08,2.94c2.63,0,5.2-1.07,7.07-2.94c1.859-1.859,2.93-4.43,2.93-7.06c0-2.64-1.07-5.21-2.93-7.08    C420.171,436.497,417.601,435.427,414.971,435.427z"/>
	</g>
</g>















</svg>
