<svg xmlns="http://www.w3.org/2000/svg" width="12" height="11" viewBox="0 0 12 11"><g><g opacity=".62"><path fill="#fff" d="M7.164 4.386c.138-.568.216-1.127.172-1.547-.112-1.066-.9-1.31-1.356-1.31-.474 0-1.151.18-1.347 1.307-.168.975.318 2.345 1.037 3.618 0 0-.08.189-.289.49-.303.438-.546.678-.546.678C3.904 5.983 3.173 4.55 3.18 3.488 3.199.76 4.698-.008 5.98 0c1.282.008 2.814.873 2.814 3.465 0 .278-.098.75-.167 1.063-.098-.008-.364-.054-.651-.081-.445-.043-.812-.06-.812-.06z"/></g><g opacity=".62"><path fill="#fff" d="M3.538 6.337c-.557.164-1.074.379-1.412.632-.857.642-.668 1.475-.438 1.884.24.426.734.944 1.799.546.92-.344 1.849-1.478 2.576-2.771 0 0 .202-.024.566.01.528.05.856.146.856.146-.934 1.67-1.793 3.056-2.706 3.59-2.347 1.37-3.761.412-4.4-.743-.64-1.156-.673-2.973 1.547-4.29.238-.142.693-.294.995-.391.043.092.138.354.26.627.187.42.357.76.357.76z"/></g><g opacity=".62"><path fill="#fff" d="M7.029 8.483c.418.412.858.764 1.24.937.97.44 1.579-.142 1.809-.55.239-.424.428-1.121-.44-1.866-.752-.645-2.173-.904-3.628-.905 0 0-.121-.167-.274-.507-.223-.492-.306-.832-.306-.832 1.876-.003 3.475.068 4.382.612 2.33 1.399 2.232 3.13 1.577 4.273-.655 1.142-2.17 2.076-4.393.763-.239-.14-.595-.468-.828-.688.056-.083.23-.298.4-.541.26-.376.46-.696.46-.696z"/></g></g></svg>